<svg xmlns="http://www.w3.org/2000/svg" data-name="Line Set" viewBox="0 0 100 125" x="0px" y="0px"><title>broken-clouds</title><path d="M79.69767,56.50075a5.3174,5.3174,0,0,1-.54386.01691h-3.501a1.27465,1.27465,0,0,1,0-2.54931h3.501a2.28962,2.28962,0,0,0,.33993-.01691,5.6529,5.6529,0,0,0,5.0816-7.27407,6.04186,6.04186,0,0,0-3.569-3.722,2.76449,2.76449,0,0,1-1.54664-1.71655,9.47858,9.47858,0,0,0-3.92593-5.54051c-5.60845-3.348-11.89676-1.18959-14.44606,3.756A2.37411,2.37411,0,0,1,58.8104,40.78c-.17,0-.32292-.017-.47592-.017a6.669,6.669,0,0,0-4.60578,1.98843,15.13173,15.13173,0,0,1,4.38483,9.29642,8.26013,8.26013,0,0,1,3.637,1.92048h6.7302a1.27465,1.27465,0,1,1,0,2.54931H63.67105a8.35267,8.35267,0,0,1-7.81793,11.94779H31.73669a1.27465,1.27465,0,0,1,0-2.54931H55.90416a5.94243,5.94243,0,0,0,5.99931-5.18367,5.71292,5.71292,0,0,0-1.25764-4.21482,5.79818,5.79818,0,0,0-3.8919-2.12442l-1.12175-.102v-.64583a1.85643,1.85643,0,0,0-.01691-.3059,13.174,13.174,0,0,0-3.41609-8.2257,12.02486,12.02486,0,0,0-1.98843-1.83553A11.90221,11.90221,0,0,0,43.17464,40.848a12.4737,12.4737,0,0,0-11.40393,7.07l-.64583,1.32569-1.2066-.83276a9.5472,9.5472,0,0,0-14.63309,5.81239,9.571,9.571,0,0,0,9.33044,11.69282h1.35971a1.27465,1.27465,0,1,1,0,2.54931H25.0236A12.39355,12.39355,0,0,1,12.6,57.94531,12.12795,12.12795,0,0,1,30.13912,45.57264a15.07772,15.07772,0,0,1,21.63517-4.4867,9.15349,9.15349,0,0,1,6.52616-2.87222c.187.017.374.017.54386.017a12.4358,12.4358,0,0,1,11.064-6.69618A12.56944,12.56944,0,0,1,81.89,40.474c0,.034.034.102.17.17a7.47766,7.47766,0,0,1,3.535,2.32836A8.29145,8.29145,0,0,1,79.69767,56.50075Z"/></svg>