<svg xmlns="http://www.w3.org/2000/svg" data-name="Line Set" viewBox="0 0 100 125" x="0px" y="0px"><title>sunny-clear-day</title><path d="M49.99961,87.5c-1.98412,0-3.38642-1.7611-4.74346-3.46378-.795-.99823-1.785-2.24088-2.47954-2.39889-.75464-.17446-2.16352.50776-3.40864,1.10686-1.92487.925-3.91558,1.88043-5.64459,1.04761-1.75781-.84763-2.25158-3.0235-2.72971-5.12778-.302-1.32906-.64354-2.835-1.22125-3.29672-.581-.46332-2.11826-.46661-3.48106-.46661a.28593.28593,0,0,1-.04608,0c-2.143,0-4.35585-.00494-5.56311-1.51587-1.20562-1.51011-.71514-3.672-.2403-5.76227.30449-1.34058.6493-2.85974.32013-3.542-.316-.65589-1.69938-1.32-2.91981-1.90677-1.95367-.939-3.97318-1.91006-4.41017-3.82834-.42135-1.85574.94639-3.57159,2.26968-5.23147.869-1.0904,1.8541-2.32565,1.8541-3.114s-.98507-2.02362-1.8541-3.114c-1.3233-1.65906-2.691-3.3749-2.26968-5.229.43616-1.91911,2.45649-2.89019,4.41017-3.82917C19.0626,37.241,20.446,36.57611,20.762,35.921c.32918-.68222-.01646-2.20138-.32095-3.542-.47484-2.09028-.96532-4.25134.23948-5.76062,1.21138-1.51751,3.43415-1.51751,5.58451-1.51751,1.36938-.00082,2.92064-.00082,3.50493-.46743.57853-.46167.92005-1.96766,1.22207-3.29672.47813-2.10427.9719-4.28014,2.73053-5.12778,1.72654-.83529,3.71807.121,5.64294,1.04679,1.24594.5991,2.65235,1.28215,3.41029,1.10686.69457-.15718,1.68457-1.39983,2.47954-2.39889C46.61236,14.2611,48.01548,12.5,49.99961,12.5c1.98495,0,3.38725,1.7611,4.74428,3.4646.795.99823,1.78415,2.24006,2.47871,2.39806.75629.17364,2.16435-.50858,3.40864-1.10686,1.92322-.92664,3.91311-1.88455,5.64459-1.04761,1.75781.84763,2.2524,3.0235,2.72971,5.1286.302,1.32823.64437,2.835,1.22207,3.2959.58018.46332,2.11744.46661,3.48024.46661.01564-.00082.03127.00082.04608,0,2.14377,0,4.35668.00494,5.56311,1.51669,1.20562,1.50928.71514,3.67116.2403,5.76144-.30367,1.34058-.6493,2.85974-.32013,3.54278.316.65424,1.69938,1.31918,2.91981,1.90594,1.95367.939,3.974,1.91006,4.41017,3.82917.42135,1.85492-.94639,3.57076-2.26968,5.23064-.869,1.0904-1.8541,2.32647-1.8541,3.114,0,.78838.98507,2.02362,1.85492,3.114,1.32247,1.65906,2.691,3.37408,2.26968,5.229-.437,1.91911-2.45649,2.89019-4.41017,3.82917-1.22043.58676-2.6038,1.2517-2.91981,1.90677-.32836.68222.01646,2.20138.32095,3.542.47484,2.09028.96532,4.25134-.2403,5.76144-1.21055,1.51669-3.43415,1.51669-5.58451,1.51669-1.36856.00082-2.92064.00082-3.50493.46743-.57771.46085-.91923,1.96684-1.22125,3.2959-.47813,2.10427-.9719,4.281-2.73136,5.12942-1.729.82953-3.71889-.12262-5.64294-1.04761-1.24594-.5991-2.66717-1.28462-3.40946-1.10686-.69539.15718-1.68539,1.40065-2.48118,2.39889C53.38685,85.7389,51.98373,87.5,49.99961,87.5Zm-7.47235-8.41627a3.66554,3.66554,0,0,1,.80978.08806c1.55866.35469,2.747,1.84669,3.89665,3.28931.89125,1.11838,2.00058,2.51081,2.76592,2.51081.76616,0,1.87549-1.39242,2.76674-2.51081,1.14966-1.44345,2.338-2.93545,3.89747-3.28931,1.61133-.36868,3.36749.47649,5.06523,1.29367,1.25582.604,2.82188,1.35539,3.449,1.04926.66247-.3193,1.05172-2.03432,1.36444-3.41276.41312-1.81789.84023-3.6975,2.10839-4.71054,1.27639-1.01963,3.212-1.01963,5.08334-1.02045,1.40641,0,3.15682,0,3.60862-.56619.44686-.55878.0609-2.259-.24935-3.62425-.41559-1.83023-.84517-3.72218-.13167-5.2002.70033-1.45168,2.42851-2.28285,4.10074-3.08687,1.2805-.61556,2.87455-1.38173,3.04-2.11086.15225-.66823-.92005-2.01293-1.78085-3.09263-1.1834-1.48377-2.40629-3.01774-2.40629-4.69s1.2229-3.2062,2.40547-4.69c.86162-1.08053,1.9331-2.42522,1.78085-3.09428-.16541-.72913-1.75946-1.49529-3.04-2.11086-1.67223-.804-3.40041-1.63519-4.10074-3.086-.71349-1.47883-.28392-3.37079.13085-5.201.31025-1.36527.69621-3.06547.25018-3.62508-.45427-.56866-2.17011-.56207-3.63248-.56536-1.864,0-3.78884-.00411-5.05947-1.01963-1.269-1.013-1.69609-2.89348-2.10921-4.71137-.31354-1.37761-.7028-3.09263-1.36362-3.41193-.63531-.30367-2.194.44439-3.44979,1.04926-1.69856.81636-3.44979,1.65824-5.06523,1.29449-1.55866-.35469-2.747-1.84669-3.89583-3.28931-.89125-1.11838-2.00058-2.51081-2.76674-2.51081s-1.87549,1.39242-2.76674,2.51163c-1.14966,1.44262-2.338,2.93463-3.89665,3.28849-1.60721.36539-3.36832-.47731-5.06606-1.29367-1.255-.604-2.82024-1.35539-3.449-1.04926-.66165.3193-1.0509,2.0335-1.36362,3.41111-.41312,1.81871-.84023,3.69914-2.11,4.71219C30.072,27.62821,28.1364,27.62821,26.265,27.629c-1.40641,0-3.15682,0-3.60944.56619-.44521.55878-.05925,2.25816.251,3.62343.41559,1.83023.84517,3.72218.13167,5.201-.70033,1.45168-2.42851,2.28285-4.10074,3.08687-1.2805.61556-2.87455,1.38173-3.04,2.11-.15225.66906.91923,2.01375,1.78085,3.09345C18.861,46.7938,20.08388,48.32777,20.08388,50s-1.2229,3.2062-2.40547,4.69c-.8608,1.08053-1.9331,2.42522-1.78085,3.0951.16541.72831,1.75946,1.49447,3.04,2.11,1.67223.804,3.40124,1.63519,4.10156,3.08687.71349,1.478.28392,3.37079-.13167,5.2002-.31025,1.36609-.69621,3.06547-.25018,3.62508.45509.56866,2.24582.59417,3.63248.56536,1.864,0,3.78884.00411,5.05947,1.01963,1.26981,1.013,1.69691,2.89348,2.11,4.71219.31272,1.37761.702,3.09181,1.3628,3.41111.63614.302,2.1948-.446,3.45061-1.04926A10.57725,10.57725,0,0,1,42.52726,79.08373Z"/><path d="M53.66557,72.92292a23.51521,23.51521,0,0,1-9.5189-.46238A1.26217,1.26217,0,0,1,43.29,70.849h0a1.26748,1.26748,0,0,1,1.54375-.82165A20.68606,20.68606,0,1,0,33.295,62.18826a1.27035,1.27035,0,0,1-.19252,1.74067h0a1.262,1.262,0,0,1-1.8135-.20028,23.20442,23.20442,0,1,1,22.37655,9.19426Z"/><path d="M40.52514,71.18858a23.402,23.402,0,0,1-6.571-4.42467,1.25831,1.25831,0,0,1,.03675-1.81972l.00021-.0002a1.27294,1.27294,0,0,1,1.75377.03417,20.8722,20.8722,0,0,0,5.75924,3.87892,1.2732,1.2732,0,0,1,.69251,1.61131h0A1.258,1.258,0,0,1,40.52514,71.18858Z"/></svg>